<?xml version="1.0" encoding="utf-8"?>
<!-- Generator: Adobe Illustrator 16.0.0, SVG Export Plug-In . SVG Version: 6.00 Build 0)  -->
<!DOCTYPE svg PUBLIC "-//W3C//DTD SVG 1.1//EN" "http://www.w3.org/Graphics/SVG/1.1/DTD/svg11.dtd">
<svg version="1.1" id="圖層_1" xmlns="http://www.w3.org/2000/svg" xmlns:xlink="http://www.w3.org/1999/xlink" x="0px" y="0px"
	 width="105.607px" height="30px" viewBox="0 0 105.607 30" enable-background="new 0 0 105.607 30" xml:space="preserve">
<g>
	<g>
		<g>
			<g>
				<defs>
					<circle id="SVGID_1_" cx="14.607" cy="15.114" r="15"/>
				</defs>
				<clipPath id="SVGID_2_">
					<use xlink:href="#SVGID_1_"  overflow="visible"/>
				</clipPath>
			</g>
		</g>
	</g>
	<g>
		<path fill="#F5F5F5" d="M10.766,25.48c0.566-0.097,0.955-0.236,1.165-0.426c0.314-0.283,0.472-0.794,0.472-1.527V14.05
			c0-0.656-0.11-1.103-0.331-1.342c-0.22-0.238-0.656-0.415-1.307-0.531v-0.771h6.187v12.248c0,0.703,0.104,1.154,0.313,1.354
			c0.211,0.2,0.604,0.357,1.182,0.473v0.771h-7.683V25.48H10.766z M12.915,4.708c0.488-0.488,1.079-0.732,1.771-0.732
			c0.682,0,1.267,0.244,1.755,0.732c0.488,0.488,0.73,1.079,0.73,1.771s-0.241,1.283-0.73,1.771
			c-0.488,0.489-1.073,0.732-1.755,0.732c-0.693,0-1.284-0.243-1.771-0.732c-0.488-0.488-0.731-1.078-0.731-1.771
			S12.427,5.196,12.915,4.708z"/>
	</g>
</g>
<g>
	<g>
		<g>
			<g>
				<defs>
					<circle id="SVGID_3_" cx="53.607" cy="15.114" r="15"/>
				</defs>
				<clipPath id="SVGID_4_">
					<use xlink:href="#SVGID_3_"  overflow="visible"/>
				</clipPath>
			</g>
		</g>
	</g>
	<path fill="#F5F5F5" d="M48.214,11.331h2.312v-1.049V9.255V9.083c0-0.989,0.025-2.518,0.746-3.462
		c0.756-1.002,1.797-1.683,3.586-1.683C57.771,3.938,59,4.354,59,4.354l-0.578,3.423c0,0-0.963-0.278-1.86-0.278
		s-1.703,0.322-1.703,1.22v0.364v1.198v1.049h3.686l-0.257,3.342h-3.429v11.616h-4.33V14.673h-2.312L48.214,11.331"/>
</g>
<g>
	<g>
		<g>
			<g>
				<defs>
					<circle id="SVGID_5_" cx="90.607" cy="15.114" r="15"/>
				</defs>
				<clipPath id="SVGID_6_">
					<use xlink:href="#SVGID_5_"  overflow="visible"/>
				</clipPath>
			</g>
		</g>
	</g>
	<g>
		<path fill="#F5F5F5" d="M90.607,5.03c-2.739,0-3.082,0.012-4.158,0.061C85.375,5.14,84.643,5.31,84.001,5.56
			c-0.663,0.257-1.226,0.603-1.787,1.163c-0.56,0.562-0.904,1.124-1.163,1.787c-0.25,0.641-0.419,1.374-0.469,2.448
			c-0.049,1.076-0.061,1.419-0.061,4.158s0.011,3.082,0.061,4.157c0.049,1.074,0.219,1.808,0.469,2.449
			c0.259,0.662,0.604,1.226,1.163,1.785c0.562,0.561,1.124,0.905,1.787,1.162c0.643,0.25,1.374,0.42,2.448,0.471
			c1.076,0.049,1.418,0.06,4.158,0.06c2.738,0,3.082-0.011,4.158-0.06c1.072-0.051,1.805-0.221,2.446-0.471
			c0.663-0.257,1.228-0.604,1.787-1.162c0.562-0.561,0.904-1.123,1.163-1.785c0.25-0.643,0.419-1.375,0.469-2.449
			c0.051-1.075,0.062-1.418,0.062-4.157c0-2.738-0.012-3.082-0.062-4.158c-0.049-1.074-0.219-1.807-0.469-2.448
			C99.906,7.847,99.561,7.285,99,6.723c-0.561-0.56-1.124-0.906-1.787-1.163c-0.643-0.25-1.374-0.42-2.446-0.469
			C93.689,5.042,93.346,5.03,90.607,5.03 M90.607,6.847c2.691,0,3.012,0.01,4.074,0.059c0.982,0.044,1.519,0.209,1.873,0.347
			c0.471,0.183,0.807,0.401,1.158,0.754c0.353,0.353,0.571,0.689,0.754,1.161c0.139,0.354,0.305,0.889,0.35,1.872
			c0.049,1.063,0.059,1.382,0.059,4.075c0,2.691-0.01,3.012-0.059,4.074c-0.045,0.982-0.209,1.518-0.35,1.873
			c-0.183,0.472-0.4,0.808-0.754,1.16c-0.353,0.354-0.688,0.57-1.158,0.754c-0.354,0.139-0.891,0.303-1.873,0.347
			c-1.062,0.049-1.383,0.06-4.074,0.06c-2.693,0-3.012-0.011-4.075-0.06c-0.983-0.044-1.517-0.208-1.873-0.347
			c-0.47-0.185-0.806-0.401-1.159-0.754c-0.353-0.354-0.569-0.688-0.754-1.16c-0.139-0.354-0.303-0.891-0.348-1.873
			c-0.049-1.062-0.06-1.383-0.06-4.074c0-2.693,0.011-3.012,0.06-4.075c0.045-0.982,0.209-1.518,0.348-1.872
			c0.185-0.472,0.4-0.808,0.754-1.161c0.354-0.353,0.688-0.571,1.159-0.754c0.356-0.138,0.89-0.303,1.873-0.347
			C87.596,6.857,87.914,6.847,90.607,6.847"/>
		<path fill="#F5F5F5" d="M90.607,18.477c-1.856,0-3.361-1.506-3.361-3.36c0-1.857,1.505-3.361,3.361-3.361
			c1.854,0,3.359,1.504,3.359,3.361C93.968,16.97,92.463,18.477,90.607,18.477 M90.607,9.936c-2.86,0-5.181,2.318-5.181,5.178
			s2.318,5.178,5.181,5.178c2.859,0,5.179-2.317,5.179-5.178C95.786,12.253,93.467,9.936,90.607,9.936"/>
		<path fill="#F5F5F5" d="M97.2,9.731c0,0.668-0.542,1.209-1.21,1.209s-1.211-0.542-1.211-1.209c0-0.668,0.543-1.21,1.211-1.21
			S97.2,9.063,97.2,9.731"/>
	</g>
</g>
</svg>
