<?xml version="1.0" encoding="utf-8"?>
<!-- Generator: Adobe Illustrator 16.0.0, SVG Export Plug-In . SVG Version: 6.00 Build 0)  -->
<!DOCTYPE svg PUBLIC "-//W3C//DTD SVG 1.1//EN" "http://www.w3.org/Graphics/SVG/1.1/DTD/svg11.dtd">
<svg version="1.1" id="圖層_1" xmlns="http://www.w3.org/2000/svg" xmlns:xlink="http://www.w3.org/1999/xlink" x="0px" y="0px"
	 width="300px" height="30px" viewBox="0 0 300 30" enable-background="new 0 0 300 30" xml:space="preserve">
<g>
	<rect fill="none" width="283.218" height="30"/>
	<path fill="#F5F5F5" d="M197.606,27.562h0.084L197.032,30h-2.641C195.509,29.562,196.59,28.82,197.606,27.562z"/>
	<g>
		<path fill="#F5F5F5" d="M197.171,13.642l-1.486,5.551h2.397l-0.552,2.06c-0.6,2.229-1.353,3.785-3.369,3.785
			c-2.02,0-1.603-2.187-1.104-4.037l3.312-12.365c0.482-1.808,1.116-3.701,3.136-3.701c1.64,0,1.829,1.178,1.232,3.408l-0.327,1.219
			h7.904c1.248-4.652,1.11-8.195-2.868-9.562h-9.209c-6.403,1.89-8.347,7.941-10.245,15.029c-1.805,6.737-3.317,13.059,1.187,14.971
			h15.916l4.381-16.358H197.171z"/>
		<polygon fill="#F5F5F5" points="214.498,23.188 220.709,0 213.902,0 205.867,30 220.425,30 222.249,23.188 		"/>
		<path fill="#F5F5F5" d="M247.226,14.987c2.034-7.594,3.53-13.192-1.884-14.987h-9.819c-6.375,1.795-7.878,7.393-9.912,14.987
			c-2.102,7.838-3.557,13.285,1.885,15.013h9.807C243.664,28.271,245.127,22.825,247.226,14.987z M238.562,14.987
			c-2.354,8.789-3.028,10.051-4.839,10.051c-1.808,0-1.806-1.263,0.55-10.051c2.354-8.789,3.026-10.051,4.837-10.051
			C240.919,4.936,240.917,6.198,238.562,14.987z"/>
		<polygon fill="#F5F5F5" points="277.653,0 269.935,20.025 269.851,20.025 272.736,0 263.012,0 255.294,20.025 255.21,20.025 
			258.095,0 251.274,0 247.555,30 257.288,30 265.127,9.97 265.21,9.97 262.472,28.195 262.247,30 272.198,30 283.218,3.233 
			283.218,0 		"/>
	</g>
	<path fill="#F5F5F5" d="M292.835,15.02c-3.957,0-7.165,3.207-7.165,7.164s3.208,7.166,7.165,7.166c3.958,0,7.165-3.207,7.165-7.166
		C300,18.227,296.793,15.02,292.835,15.02z M293.549,23.688c0.676,0.66,1.985-0.754,3.407-3.752
		c-0.713,3.449-2.291,5.055-3.204,5.52c-1.245,0.636-1.67-0.496-2.65,0.406c-1.189,1.099-2.139,1.621-2.396,0.779
		c-0.17-0.556,0.701-0.717,0.295-1.951c-1.036-3.148,1.781-4.996,1.781-4.996c-2.796,4.183,0.229,4.941,0.318,2.516
		c0.063-1.648,0.312-2.299,4.062-3.948c-3.298,1.897-2.099,2.507-1.86,2.534c1.083,0.139,3.631-2.613,3.682-3.479l0.007,0.008
		c-0.079,2.121-0.579,2.779-1.88,4.037C293.799,22.629,293.374,23.352,293.549,23.688z"/>
</g>
</svg>
