<?xml version="1.0" encoding="utf-8"?>
<!-- Generator: Adobe Illustrator 16.0.0, SVG Export Plug-In . SVG Version: 6.00 Build 0)  -->
<!DOCTYPE svg PUBLIC "-//W3C//DTD SVG 1.1//EN" "http://www.w3.org/Graphics/SVG/1.1/DTD/svg11.dtd">
<svg version="1.1" id="圖層_1" xmlns="http://www.w3.org/2000/svg" xmlns:xlink="http://www.w3.org/1999/xlink" x="0px" y="0px"
	 width="716px" height="30px" viewBox="0 0 716 30" enable-background="new 0 0 716 30" xml:space="preserve">
<rect fill="none" width="699.218" height="30"/>
<path fill="#F5F5F5" d="M613.606,27.562h0.084L613.032,30h-2.64C611.509,29.562,612.59,28.82,613.606,27.562z"/>
<g>
	<path fill="#F5F5F5" d="M613.171,13.642l-1.486,5.551h2.397l-0.552,2.06c-0.599,2.229-1.352,3.785-3.369,3.785
		c-2.019,0-1.602-2.187-1.104-4.037l3.312-12.365c0.483-1.808,1.116-3.701,3.136-3.701c1.64,0,1.829,1.178,1.232,3.408l-0.327,1.219
		h7.905c1.248-4.652,1.11-8.195-2.869-9.562h-9.209c-6.403,1.89-8.346,7.941-10.245,15.029c-1.804,6.737-3.317,13.059,1.187,14.971
		h15.916l4.381-16.358H613.171z"/>
	<polygon fill="#F5F5F5" points="630.498,23.188 636.709,0 629.902,0 621.867,30 636.425,30 638.249,23.188 	"/>
	<path fill="#F5F5F5" d="M663.226,14.987c2.034-7.594,3.53-13.192-1.884-14.987h-9.82c-6.375,1.795-7.878,7.393-9.912,14.987
		c-2.101,7.838-3.556,13.285,1.885,15.013h9.807C659.664,28.271,661.127,22.825,663.226,14.987z M654.562,14.987
		c-2.354,8.789-3.028,10.051-4.838,10.051c-1.808,0-1.806-1.263,0.549-10.051c2.354-8.789,3.027-10.051,4.837-10.051
		C656.919,4.936,656.917,6.198,654.562,14.987z"/>
	<polygon fill="#F5F5F5" points="693.653,0 685.935,20.025 685.851,20.025 688.736,0 679.012,0 671.294,20.025 671.21,20.025
		674.095,0 667.274,0 663.555,30 673.288,30 681.127,9.97 681.21,9.97 678.472,28.195 678.247,30 688.198,30 699.218,3.233
		699.218,0 	"/>
</g>
<path fill="#F5F5F5" d="M708.835,15.02c-3.957,0-7.165,3.207-7.165,7.164s3.208,7.166,7.165,7.166c3.958,0,7.165-3.207,7.165-7.166
	C716,18.227,712.793,15.02,708.835,15.02z M709.549,23.688c0.676,0.66,1.985-0.754,3.407-3.752
	c-0.713,3.449-2.291,5.054-3.204,5.519c-1.245,0.636-1.67-0.496-2.65,0.407c-1.19,1.098-2.139,1.621-2.396,0.779
	c-0.17-0.556,0.701-0.717,0.295-1.951c-1.036-3.149,1.781-4.996,1.781-4.996c-2.796,4.182,0.229,4.941,0.319,2.515
	c0.063-1.649,0.312-2.299,4.062-3.948c-3.298,1.897-2.098,2.506-1.86,2.534c1.083,0.138,3.631-2.614,3.681-3.478l0.007,0.007
	c-0.079,2.122-0.579,2.78-1.88,4.038C709.799,22.629,709.374,23.352,709.549,23.688z"/>
</svg>
