<?xml version="1.0" encoding="utf-8"?>
<!-- Generator: Adobe Illustrator 16.0.0, SVG Export Plug-In . SVG Version: 6.00 Build 0)  -->
<!DOCTYPE svg PUBLIC "-//W3C//DTD SVG 1.1//EN" "http://www.w3.org/Graphics/SVG/1.1/DTD/svg11.dtd">
<svg version="1.1" id="圖層_1" xmlns="http://www.w3.org/2000/svg" xmlns:xlink="http://www.w3.org/1999/xlink" x="0px" y="0px"
	 width="700px" height="153.758px" viewBox="0 0 700 153.758" enable-background="new 0 0 700 153.758" xml:space="preserve">
<g>
	<g>
		<path fill="#F5F5F5" d="M663.276,76.981c-20.279,0-36.724,16.436-36.724,36.719c0,20.285,16.443,36.729,36.724,36.729
			c20.289,0,36.724-16.442,36.724-36.729C700,93.415,683.565,76.981,663.276,76.981z M666.937,121.403
			c3.465,3.383,10.177-3.871,17.464-19.232c-3.655,17.68-11.742,25.898-16.426,28.281c-6.379,3.258-8.558-2.539-13.58,2.086
			c-6.108,5.629-10.966,8.308-12.284,3.994c-0.869-2.842,3.593-3.67,1.51-9.998c-5.308-16.141,9.133-25.604,9.133-25.604
			c-14.332,21.431,1.178,25.328,1.643,12.888c0.325-8.459,1.601-11.783,20.813-20.232c-16.901,9.725-10.751,12.841-9.534,12.986
			c5.551,0.705,18.607-13.396,18.861-17.822l0.034,0.035c-0.407,10.873-2.966,14.246-9.634,20.699
			C668.22,115.979,666.041,119.677,666.937,121.403z"/>
		<path fill="#F5F5F5" d="M429.518,76.811c-10.757,40.172-18.255,68.088-50.871,76.946h52.556L450.263-0.001h-30.399
			C447.61,9.2,439.941,37.89,429.518,76.811z"/>
		<polygon fill="#F5F5F5" points="485.227,-0.001 470.439,102.638 470.87,102.638 510.424,-0.001 		"/>
		<polygon fill="#F5F5F5" points="481.088,153.758 506.507,153.758 507.655,144.505 521.691,51.097 521.263,51.097 		"/>
		<polygon fill="#F5F5F5" points="560.268,-0.001 545.482,102.638 545.912,102.638 585.468,-0.001 		"/>
		<polygon fill="#F5F5F5" points="613.988,153.758 613.988,16.567 557.509,153.758 		"/>
		<path fill="#F5F5F5" d="M230.087,49.008h-40.522l1.674-6.25c3.062-11.425,2.09-17.465-6.316-17.465
			c-10.346,0-13.588,9.704-16.071,18.969l-16.971,63.372c-2.54,9.481-4.683,20.69,5.663,20.69c10.348,0,14.207-7.977,17.267-19.397
			l2.827-10.56h-12.286l7.62-28.451h52.81l-22.456,83.842h14.215L258.726-0.001h-43.345
			C235.776,7.002,236.475,25.164,230.087,49.008z"/>
		<path fill="#F5F5F5" d="M158.738,153.758h13.521l3.376-12.498h-0.43C169.991,147.715,164.453,151.522,158.738,153.758z"/>
		<path fill="#F5F5F5" d="M387.921,25.297c-9.265,0-12.723,6.467-24.787,51.514c-12.065,45.047-12.075,51.516-2.809,51.516
			c9.271,0,12.726-6.469,24.791-51.516C397.181,31.764,397.191,25.297,387.921,25.297z"/>
		<path fill="#F5F5F5" d="M369.532-0.001H293.61l-31.83,118.844h39.723l-9.352,34.914h36.231
			c-27.875-8.858-20.416-36.774-9.654-76.946C329.153,37.89,336.853,9.2,369.532-0.001z"/>
		<path fill="#F5F5F5" d="M168.18-0.001H86.192v153.759h35.56c-23.083-9.799-15.325-42.204-6.078-76.73
			C125.405,40.698,135.361,9.685,168.18-0.001z"/>
	</g>
</g>
</svg>
