<?xml version="1.0" encoding="utf-8"?>
<!-- Generator: Adobe Illustrator 16.0.0, SVG Export Plug-In . SVG Version: 6.00 Build 0)  -->
<!DOCTYPE svg PUBLIC "-//W3C//DTD SVG 1.1//EN" "http://www.w3.org/Graphics/SVG/1.1/DTD/svg11.dtd">
<svg version="1.1" id="圖層_1" xmlns="http://www.w3.org/2000/svg" xmlns:xlink="http://www.w3.org/1999/xlink" x="0px" y="0px"
	 width="700.295px" height="204.572px" viewBox="0 0 700.295 204.572" enable-background="new 0 0 700.295 204.572"
	 xml:space="preserve">
<g>
	<defs>
		<path id="SVGID_1_" d="M663.729,76.734c-20.19,0-36.562,16.365-36.562,36.562c0,20.194,16.37,36.569,36.562,36.569
			c20.202,0,36.565-16.375,36.565-36.569C700.295,93.099,683.932,76.734,663.729,76.734z M667.376,120.968
			c3.451,3.366,10.132-3.855,17.387-19.151c-3.64,17.602-11.688,25.784-16.354,28.159c-6.353,3.242-8.521-2.526-13.522,2.08
			c-6.083,5.602-10.918,8.266-12.229,3.971c-0.866-2.828,3.579-3.65,1.501-9.95c-5.281-16.074,9.096-25.495,9.096-25.495
			c-14.271,21.338,1.173,25.218,1.634,12.832c0.324-8.422,1.598-11.736,20.726-20.146c-16.828,9.682-10.706,12.784-9.493,12.927
			c5.523,0.703,18.524-13.337,18.778-17.743l0.035,0.034c-0.404,10.828-2.952,14.182-9.594,20.61
			C668.652,115.563,666.482,119.247,667.376,120.968z M421.367,0.086h30.27l-18.979,153.095h-52.327
			c32.478-8.82,39.94-36.615,50.649-76.615C441.361,37.815,448.997,9.249,421.367,0.086z M511.54,0.086l-39.382,102.196h-0.43
			L486.449,0.086H511.54z M522.329,50.964h0.425l-13.972,93.003l-1.145,9.212h-25.311L522.329,50.964z M586.26,0.086
			l-39.386,102.196h-0.425L561.166,0.086H586.26z M558.417,153.181l56.239-136.598v136.598H558.417z M217.773,0.086h43.158
			l-41.007,153.095h-14.156l22.361-83.48H175.55l-7.592,28.329h12.234l-2.813,10.513c-3.049,11.371-6.89,19.316-17.193,19.316
			c-10.3,0-8.166-11.159-5.638-20.601l16.896-63.099c2.472-9.227,5.702-18.888,16.002-18.888c8.37,0,9.333,6.015,6.288,17.39
			l-1.666,6.223h40.346C238.775,25.142,238.081,7.06,217.773,0.086z M177.773,140.738h0.425l-3.358,12.442h-13.466
			C167.063,150.953,172.577,147.166,177.773,140.738z M386.775,76.566c-12.019,44.852-15.456,51.292-24.686,51.292
			c-9.229,0-9.217-6.44,2.792-51.292c12.013-44.852,15.456-51.29,24.681-51.29C398.797,25.276,398.785,31.714,386.775,76.566z
			 M320.674,76.566c-10.717,40-18.141,67.794,9.614,76.615h-36.077l9.313-34.765H263.97l31.694-118.33h75.591
			C338.718,9.249,331.05,37.815,320.674,76.566z M118.495,76.783c-9.205,34.375-16.929,66.644,6.053,76.397H89.141V0.086h81.634
			C138.098,9.73,128.187,40.61,118.495,76.783z M134.226,176.469h-2.512c-2.476,6.136-5.241,11.384-8.623,15.793
			c1.204,2.781,3.017,5.076,5.682,6.664c-1.797,1.281-4.51,3.837-5.953,5.606c-2.374-1.682-4.048-3.844-5.262-6.403
			c-3.09,2.647-6.608,4.771-10.751,6.403c-0.168-1.021-0.616-2.652-1.131-4.018c-2.121,3.969-5.64,4.098-10.29,4.018
			c0.355-1.682,0.385-4.108-0.13-5.65c1.464,0.133,2.73,0.174,3.529,0.174c0.614,0,1.057-0.174,1.609-0.746
			c0.965-0.972,2.448-5.205,5.666-16.283h-7.371c-0.307,0.49-0.6,0.932-0.937,1.369h6.398l-3.471,13.017h-6.305l-0.51,1.897h-4.721
			l2.849-10.679c-0.893-0.793-1.96-1.584-2.757-2.073c3.036-2.776,5.938-7.72,7.947-12.438l0.373,0.088l0.401-1.5h-4.368
			l1.457-5.474h4.368l0.963-3.614l6.612,0.353c-0.161,0.441-0.55,0.75-1.425,0.883l-0.633,2.379h3.35l0.965-3.614l6.741,0.353
			c-0.171,0.485-0.55,0.75-1.469,0.883l-0.634,2.379h4.015l-1.458,5.474h-4.015l-0.706,2.644h-5.604l0.704-2.644h-3.351
			l-0.704,2.644h-0.485l1.448,0.357c-0.237,0.396-0.749,0.658-1.354,0.618c-0.217,0.481-0.492,1.015-0.75,1.497h7.32l1.336-0.04
			l3.204,0.217c-0.112,0.269-0.8,2.517-0.941,3.05c3.533-4.507,6.729-11.035,9.208-17.52l7.07,1.457
			c-0.249,0.441-0.762,0.701-1.425,0.701c-0.838,1.991-1.705,3.934-2.668,5.871h11.07L134.226,176.469z M98.111,188.161h-1.543
			l-0.927,3.482h1.542L98.111,188.161z M115.716,192.129c-0.343-2.03-0.547-4.231-0.576-6.612c-0.572,0.658-1.18,1.276-1.774,1.851
			c-0.461-0.75-1.299-1.897-2.134-2.912c-1.964,6.709-3.38,11.03-4.518,13.812C110.203,196.765,113.168,194.733,115.716,192.129z
			 M121.61,176.469c-0.257,2.781-0.355,5.474-0.177,7.945c1.352-2.429,2.588-5.076,3.704-7.945H121.61z M225.794,190.368
			l-1.657,6.215h-8.779l-2.106,7.9h-6.532l2.106-7.9h-8.731l1.488-5.598l-5.493,0.746c-2.159,4.636-5.196,9.094-9.955,12.711
			c-0.899-1.282-2.925-3.267-4.334-4.107c3.082-2.291,5.361-4.896,7.062-7.628l-3.005,0.354c-0.217,0.484-0.73,0.746-1.096,0.791
			l-0.212-7.146c2.022-0.133,4.594-0.354,7.431-0.57c0.545-1.544,1.055-3.138,1.472-4.683h-6.312l1.621-6.087h6.308l0.895-3.346
			c-1.958,0.393-3.904,0.746-5.798,1.055c0.104-1.545-0.233-3.924-0.65-5.336c6.295-1.107,13.084-3.09,17.855-5.252l2.335,3.662
			l0.562-2.117h21.836l-1.657,6.219h-8.073l-0.666,2.516h7.05l-1.581,5.955h-7.062l-0.75,2.821h7.058l-1.589,5.958h-7.054
			l-0.762,2.869h8.775V190.368z M203.87,190.368h6.617l0.762-2.869h-6.087l1.585-5.958h6.091l0.75-2.821h-6.087l1.585-5.955h6.091
			l0.666-2.516h-7.231l0.506-1.898c-1.978,0.799-4.186,1.457-6.524,2.123l-1.304,4.892h6.131l-1.617,6.087h-6.131
			c-0.365,1.372-0.778,2.736-1.232,4.104l6.697-0.617L203.87,190.368z M306.75,177.043h17.113l-1.261,4.724h-40.321l1.26-4.724
			h16.675l0.317-1.188h-11.556l1.188-4.453h11.556l0.329-1.24h-14.16l1.26-4.719h14.156l0.804-3.002l7.788,0.397
			c-0.182,0.53-0.662,0.838-1.625,0.972l-0.435,1.633h14.252l-1.26,4.719H308.58l-0.329,1.24h11.913l-1.188,4.453h-11.908
			L306.75,177.043z M315.65,183.045l-4.201,15.749c-1.364,5.12-3.96,5.778-12.788,5.778c0.104-1.546-0.173-3.663-0.546-5.072
			c1.167,0.089,2.833,0.133,4.023,0.133c0.706,0,1.292-0.044,1.509-0.044c1.06,0,1.144-0.311,1.425-1.372H290.78l-1.669,6.269
			h-6.396l5.714-21.439L315.65,183.045L315.65,183.045z M307.922,187.543h-14.297l-0.325,1.235h14.293L307.922,187.543z
			 M291.864,194.163h14.292l0.35-1.327h-14.289L291.864,194.163z M416.143,189.265l-1.656,6.221h-14.65l-2.399,9h-6.616l2.398-9
			h-19.677l1.661-6.221h6.838l2.752-10.324c-0.999,0.929-2.03,1.811-3.021,2.562c-0.863-1.237-2.718-3.399-3.978-4.458
			c4.667-3.262,9.702-9.088,12.992-14.646l7.042,2.379c-0.281,0.397-0.834,0.666-1.478,0.578c-0.385,0.619-0.806,1.188-1.235,1.806
			h24.268l-1.657,6.224h-12.001l-1.184,4.455h10.982l-1.589,5.958h-10.982l-1.461,5.47h14.65V189.265z M399.106,173.383h-8.904
			c-1.356,1.585-2.77,3.085-4.237,4.455h11.958L399.106,173.383z M388.48,189.265h6.396l1.456-5.469h-6.396L388.48,189.265z
			 M512.101,187.499l-1.283,4.807h-4.63l-2.043,7.678h-6.527l0.478-1.807h-6.439c-1.409,5.292-3.158,6.396-12.378,6.396
			c0.075-1.456-0.306-3.663-0.76-4.939c1.786,0.088,4.391,0.088,5.097,0.088c1.099,0,1.256-0.578,1.513-1.544h-12.928l1.212-4.542
			h12.928l0.354-1.328H469.48l1.283-4.808h17.206l0.317-1.19h-12.619l1.132-4.237h12.615l0.33-1.236h-11.642l2.561-9.612h11.647
			l0.306-1.147h-16.103l1.328-4.988h16.103l0.678-2.556l7.771,0.309c-0.185,0.53-0.646,0.928-1.604,1.059l-0.317,1.188h16.5
			l-1.328,4.988h-16.5l-0.305,1.147h12.173l-2.562,9.612h-12.174l-0.333,1.236h12.977l-1.449,5.429h4.63V187.499z M485.278,176.91
			h5.517l0.469-1.763h-5.517L485.278,176.91z M503.398,175.147h-5.605l-0.47,1.763h5.604L503.398,175.147z M494.815,186.308
			l-0.312,1.191h6.437l0.32-1.191H494.815z M499.309,193.635l0.351-1.329h-6.44l-0.353,1.329H499.309z M588.09,195.131h16.451
			l-1.722,6.484h-39.752l1.729-6.484h16.274l5.787-21.708h-14.16l1.725-6.484h35.563l-1.729,6.484h-14.381L588.09,195.131z"/>
	</defs>
	<clipPath id="SVGID_2_">
		<use xlink:href="#SVGID_1_"  overflow="visible"/>
	</clipPath>
</g>
</svg>
