<?xml version="1.0" encoding="utf-8"?>
<!-- Generator: Adobe Illustrator 16.0.0, SVG Export Plug-In . SVG Version: 6.00 Build 0)  -->
<!DOCTYPE svg PUBLIC "-//W3C//DTD SVG 1.1//EN" "http://www.w3.org/Graphics/SVG/1.1/DTD/svg11.dtd">
<svg version="1.1" id="圖層_1" xmlns="http://www.w3.org/2000/svg" xmlns:xlink="http://www.w3.org/1999/xlink" x="0px" y="0px"
	 width="45.999px" height="46px" viewBox="0 0 45.999 46" enable-background="new 0 0 45.999 46" xml:space="preserve">
<g>
	<path fill="#F5F5F5" d="M25.291,27.822c2.17,2.119,6.374-2.425,10.938-12.045c-2.29,11.074-7.355,16.221-10.288,17.714
		c-3.995,2.04-5.359-1.591-8.506,1.306c-3.825,3.525-6.867,5.202-7.693,2.5c-0.544-1.779,2.25-2.297,0.945-6.262
		C7.364,20.927,16.406,15,16.406,15c-8.976,13.421,0.738,15.863,1.029,8.07c0.204-5.296,1.003-7.379,13.036-12.672
		c-10.585,6.091-6.732,8.042-5.971,8.134c3.476,0.442,11.654-8.391,11.812-11.163l0.021,0.022
		c-0.254,6.811-1.856,8.922-6.032,12.964C26.095,24.425,24.729,26.741,25.291,27.822 M22.999,0C10.298,0,0,10.293,0,22.997
		C0,35.702,10.298,46,22.999,46c12.708,0,23-10.298,23-23.003C45.999,10.293,35.707,0,22.999,0"/>
</g>
</svg>
